<?xml version="1.0" standalone="no"?><!DOCTYPE svg PUBLIC "-//W3C//DTD SVG 1.1//EN" "http://www.w3.org/Graphics/SVG/1.1/DTD/svg11.dtd"><svg t="1607583011101" class="icon" viewBox="0 0 1024 1024" version="1.1" xmlns="http://www.w3.org/2000/svg" p-id="4187" xmlns:xlink="http://www.w3.org/1999/xlink" width="200" height="200"><defs><style type="text/css"></style></defs><path d="M512 512m-512 0a512 512 0 1 0 1024 0 512 512 0 1 0-1024 0Z" fill="#E0EAFF" p-id="4188"></path><path d="M512 725.8112l-111.637558 58.691368a62.938274 62.938274 0 0 1-91.319242-66.344421l21.320758-124.3136-90.3168-88.042442a62.938274 62.938274 0 0 1 34.880674-107.347537l124.82021-18.140968 55.824169-113.103495a62.927495 62.927495 0 0 1 112.866357 0l55.824169 113.103495 124.82021 18.140968a62.938274 62.938274 0 0 1 34.880674 107.347537l-90.327579 88.042442 21.320758 124.3136a62.927495 62.927495 0 0 1-91.308463 66.344421z" fill="#00ABFF" p-id="4189"></path><path d="M371.000589 802.589642a73.868126 73.868126 0 0 1-72.574652-86.231579l20.37221-118.740884-86.231579-84.07579a73.706442 73.706442 0 0 1 40.852211-125.725642l119.215158-17.321768 53.323452-108.026611a73.695663 73.695663 0 0 1 132.182232 0l53.323453 108.026611 119.204379 17.321768a73.706442 73.706442 0 0 1 40.862989 125.725642l-86.231579 84.07579 20.372211 118.740884a73.717221 73.717221 0 0 1-106.959495 77.705432l-106.625347-56.050527-106.614569 56.050527a73.814232 73.814232 0 0 1-34.471074 8.526147zM512 242.903579a51.2 51.2 0 0 0-46.759074 29.103158l-55.824168 113.103495a10.778947 10.778947 0 0 1-8.116547 5.896084l-124.83099 18.140968a52.170105 52.170105 0 0 0-28.898358 88.969432l90.327579 88.042442a10.778947 10.778947 0 0 1 3.093558 9.528589l-21.320758 124.324379a52.159326 52.159326 0 0 0 75.668211 54.972632l111.648336-58.691369a10.778947 10.778947 0 0 1 10.0352 0l111.648337 58.691369a52.159326 52.159326 0 0 0 75.668211-54.972632l-21.320758-124.324379a10.778947 10.778947 0 0 1 3.093558-9.528589l90.327579-88.042442a52.159326 52.159326 0 0 0-28.909137-88.969432l-124.820211-18.140968a10.778947 10.778947 0 0 1-8.116547-5.896084l-55.824168-113.103495a51.210779 51.210779 0 0 0-46.769853-29.103158z" fill="#383C50" p-id="4190"></path><path d="M512 622.3872l-56.589474 29.749895a31.258947 31.258947 0 0 1-45.271579-32.918906l10.778948-63.013726-45.77819-44.624842a31.258947 31.258947 0 0 1 17.31099-53.269558l63.261642-9.183663 28.294737-57.333221a31.258947 31.258947 0 0 1 56.050526 0l28.294737 57.333221 63.272421 9.183663a31.258947 31.258947 0 0 1 17.310989 53.269558l-45.788968 44.624842 10.778947 63.013726a31.258947 31.258947 0 0 1-45.271579 32.918906z" fill="#FFFFFF" p-id="4191"></path><path d="M583.162611 666.559326a41.973221 41.973221 0 0 1-19.585348-4.882863L512 634.567411l-51.566484 27.109052a42.037895 42.037895 0 0 1-60.954948-44.279916l9.851958-57.430231-41.725305-40.668969a42.037895 42.037895 0 0 1 23.282526-71.647663l57.667369-8.375242 25.783242-52.256337a42.037895 42.037895 0 0 1 75.334063 0l25.783242 52.256337 57.667369 8.375242a42.037895 42.037895 0 0 1 23.282526 71.647663l-41.725305 40.679748 9.841179 57.419452a42.091789 42.091789 0 0 1-41.358821 49.162779z m-71.141053-54.972631a10.703495 10.703495 0 0 1 5.022989 1.239579l56.589474 29.760673a20.48 20.48 0 0 0 29.663663-21.557894l-10.778947-63.013727a10.778947 10.778947 0 0 1 3.093558-9.539368l45.778189-44.614063a20.48 20.48 0 0 0-11.317895-34.902232l-63.272421-9.183663a10.778947 10.778947 0 0 1-8.116547-5.896084l-28.294737-57.333221a20.48 20.48 0 0 0-36.648421 0l-28.294737 57.333221a10.778947 10.778947 0 0 1-8.116547 5.896084l-63.272421 9.183663a20.48 20.48 0 0 0-11.328674 34.902232l45.788969 44.614063a10.778947 10.778947 0 0 1 3.093558 9.539368l-10.778948 63.013727a20.48 20.48 0 0 0 29.674442 21.557894l56.589474-29.760673a10.692716 10.692716 0 0 1 4.904421-1.218021z" fill="#383C50" p-id="4192"></path><path d="M512.010779 518.3488m-26.634779 0a26.634779 26.634779 0 1 0 53.269558 0 26.634779 26.634779 0 1 0-53.269558 0Z" fill="#FFB22F" p-id="4193"></path><path d="M512 555.751747a37.413726 37.413726 0 1 1 37.413726-37.402947 37.435284 37.435284 0 0 1-37.413726 37.402947z m0-53.258779a15.855832 15.855832 0 1 0 15.855832 15.855832 15.877389 15.877389 0 0 0-15.855832-15.855832z" fill="#383C50" p-id="4194"></path></svg>